HIERARCHY
ROOT Hips
{
	OFFSET 0.000000 0.000000 0.000000
	CHANNELS 6 Xposition Yposition Zposition Zrotation Yrotation Xrotation 
	JOINT LHipJoint
	{
		OFFSET 0.000000 0.000000 0.000000
		CHANNELS 3 Zrotation Yrotation Xrotation
		JOINT LeftUpLeg
		{
			OFFSET 1.363060 -1.794630 0.839290
			CHANNELS 3 Zrotation Yrotation Xrotation
			JOINT LeftLeg
			{
				OFFSET 2.448110 -6.726130 0.000000
				CHANNELS 3 Zrotation Yrotation Xrotation
				JOINT LeftFoot
				{
					OFFSET 2.562200 -7.039590 0.000000
					CHANNELS 3 Zrotation Yrotation Xrotation
					JOINT LeftToeBase
					{
						OFFSET 0.157640 -0.433110 2.322550
						CHANNELS 3 Zrotation Yrotation Xrotation
						End Site
						{
							OFFSET 0.000000 0.000000 0.000000
						}
					}
				}
			}
		}
	}
	JOINT RHipJoint
	{
		OFFSET 0.000000 0.000000 0.000000
		CHANNELS 3 Zrotation Yrotation Xrotation
		JOINT RightUpLeg
		{
			OFFSET -1.305520 -1.794630 0.839290
			CHANNELS 3 Zrotation Yrotation Xrotation
			JOINT RightLeg
			{
				OFFSET -2.542530 -6.985550 0.000000
				CHANNELS 3 Zrotation Yrotation Xrotation
				JOINT RightFoot
				{
					OFFSET -2.568260 -7.056230 0.000000
					CHANNELS 3 Zrotation Yrotation Xrotation
					JOINT RightToeBase
					{
						OFFSET -0.164730 -0.452590 2.363150
						CHANNELS 3 Zrotation Yrotation Xrotation
						End Site
						{
							OFFSET 0.000000 0.000000 0.000000
						}
					}
				}
			}
		}
	}
	JOINT LowerBack
	{
		OFFSET 0.000000 0.000000 0.000000
		CHANNELS 3 Zrotation Yrotation Xrotation
		JOINT Spine
		{
			OFFSET 0.028270 2.035590 -0.193380
			CHANNELS 3 Zrotation Yrotation Xrotation
			JOINT Spine1
			{
				OFFSET 0.056720 2.048850 -0.042750
				CHANNELS 3 Zrotation Yrotation Xrotation
				JOINT Neck
				{
					OFFSET 0.000000 0.000000 0.000000
					CHANNELS 3 Zrotation Yrotation Xrotation
					JOINT Neck1
					{
						OFFSET -0.054170 1.746240 0.172020
						CHANNELS 3 Zrotation Yrotation Xrotation
						JOINT Head
						{
							OFFSET 0.104070 1.761360 -0.123970
							CHANNELS 3 Zrotation Yrotation Xrotation
							End Site
							{
								OFFSET 0.000000 0.000000 0.000000
							}
						}
					}
				}
				JOINT LeftShoulder
				{
					OFFSET 0.000000 0.000000 0.000000
					CHANNELS 3 Zrotation Yrotation Xrotation
					JOINT LeftArm
					{
						OFFSET 3.362410 1.200890 -0.311210
						CHANNELS 3 Zrotation Yrotation Xrotation
						JOINT LeftForeArm
						{
							OFFSET 4.983000 -0.000000 -0.000000
							CHANNELS 3 Zrotation Yrotation Xrotation
							JOINT LeftHand
							{
								OFFSET 3.483560 -0.000000 -0.000000
								CHANNELS 3 Zrotation Yrotation Xrotation
								JOINT LeftFingerBase
								{
									OFFSET 0.000000 0.000000 0.000000
									CHANNELS 3 Zrotation Yrotation Xrotation
									JOINT LeftHandIndex1
									{
										OFFSET 0.715260 -0.000000 -0.000000
										CHANNELS 3 Zrotation Yrotation Xrotation
										End Site
										{
											OFFSET 0.000000 0.000000 0.000000
										}
									}
								}
								JOINT LThumb
								{
									OFFSET 0.000000 0.000000 0.000000
									CHANNELS 3 Zrotation Yrotation Xrotation
									End Site
									{
										OFFSET 0.000000 0.000000 0.000000
									}
								}
							}
						}
					}
				}
				JOINT RightShoulder
				{
					OFFSET 0.000000 0.000000 0.000000
					CHANNELS 3 Zrotation Yrotation Xrotation
					JOINT RightArm
					{
						OFFSET -3.136600 1.374050 -0.404650
						CHANNELS 3 Zrotation Yrotation Xrotation
						JOINT RightForeArm
						{
							OFFSET -5.241900 -0.000000 -0.000000
							CHANNELS 3 Zrotation Yrotation Xrotation
							JOINT RightHand
							{
								OFFSET -3.444170 -0.000000 -0.000000
								CHANNELS 3 Zrotation Yrotation Xrotation
								JOINT RightFingerBase
								{
									OFFSET 0.000000 0.000000 0.000000
									CHANNELS 3 Zrotation Yrotation Xrotation
									JOINT RightHandIndex1
									{
										OFFSET -0.622530 -0.000000 -0.000000
										CHANNELS 3 Zrotation Yrotation Xrotation
										End Site
										{
											OFFSET 0.000000 0.000000 0.000000
										}
									}
								}
								JOINT RThumb
								{
									OFFSET 0.000000 0.000000 0.000000
									CHANNELS 3 Zrotation Yrotation Xrotation
									End Site
									{
										OFFSET 0.000000 0.000000 0.000000
									}
								}
							}
						}
					}
				}
			}
		}
	}
}
MOTION
Frames: 6
Frame Time: 0.008333
1.009556 15.893701 -17.172600 -1.260404 -1.062634 39.573884 4.253013 2.186074 0.724138 -4.331704 -20.121400 -76.971420 9.808637 19.488980 60.359336 1.200443 -1.710977 -15.351616 0.045300 -1.373300 -3.776600 -4.734695 -3.059783 2.349119 8.861010 20.474044 -78.233190 -10.522571 -19.104242 62.263613 -0.403647 -1.953017 -13.454895 -0.054100 1.500700 -4.127700 3.389323 0.149074 46.422625 1.632738 2.447631 1.705806 0.397336 1.136119 -16.513794 -6.217068 -3.733395 -20.534211 5.524456 -2.546759 -16.436996 3.398000 -0.773500 1.162200 -5.127972 2.847124 -2.846451 -80.157880 4.129492 28.124365 38.743339 -48.146561 -21.308273 -0.448072 -2.294285 -19.641775 28.075415 13.535165 8.594200 -7.125000 0.000000 0.000000 1.577200 47.753500 0.107200 2.962720 -1.252500 -2.054504 78.996978 -6.491849 19.440172 -65.594053 55.864863 -43.487259 1.759262 0.318679 -15.167381 -22.903759 18.461711 -8.248300 7.125000 0.000000 0.000000 2.232200 -9.898000 1.816700 
1.011364 15.886267 -17.108403 -1.239985 -0.927350 40.014393 4.251793 2.210669 0.780670 -4.101997 -20.368633 -77.313508 9.839131 19.502540 60.450065 1.220071 -1.681743 -15.636422 0.039900 -1.289800 -3.546500 -4.712736 -3.061616 2.403983 8.976972 20.258227 -78.542806 -10.503637 -19.111748 62.215254 -0.383789 -2.179434 -13.725273 -0.092900 1.966000 -5.411600 3.550231 -0.052796 48.110517 1.529860 2.354682 0.932229 0.297946 1.093038 -16.960709 -6.143641 -3.688904 -20.031386 5.681596 -2.448748 -17.823917 3.459500 -0.714200 0.678300 -5.119698 2.895116 -2.931944 -80.385553 5.685044 28.094766 38.649185 -48.100405 -21.255459 -0.453217 -2.271072 -20.339101 27.906383 12.675242 8.069700 -7.125000 0.000000 0.000000 1.534900 46.723600 0.065300 2.903517 -1.231497 -2.098736 79.478103 -7.870523 19.125657 -66.234169 56.005184 -44.038095 1.803844 0.279700 -15.394930 -23.074460 19.398583 -8.743600 7.125000 0.000000 0.000000 2.194500 -8.814200 1.833700 
1.012469 15.880038 -17.049331 -1.280898 -0.755063 40.594519 4.250567 2.225421 0.792423 -3.698867 -20.588054 -77.805861 9.874250 19.522688 60.552174 1.254481 -1.756385 -15.892297 0.030700 -1.130500 -3.108000 -4.695702 -3.058390 2.417310 9.037670 20.089856 -78.984768 -10.508549 -19.132172 62.234988 -0.583678 -1.287798 -14.463497 -0.000200 -0.089200 0.245000 3.684844 -0.189820 49.064036 1.519125 2.319303 0.804919 0.233425 1.060969 -17.424339 -6.215949 -3.740399 -19.990437 5.993963 -2.393273 -18.884960 3.584300 -0.666100 0.382300 -5.109887 2.949470 -2.985299 -80.610957 7.149371 28.087734 39.096558 -48.368509 -21.633705 -0.252227 -2.342766 -21.260208 26.707221 15.245541 8.970200 -7.125000 0.000000 0.000000 -0.124600 49.495600 -0.013800 2.870449 -1.218548 -2.112699 79.903751 -9.184296 18.898299 -67.008660 56.179956 -44.727852 1.839842 0.268757 -15.651821 -23.332179 19.954433 -9.103700 7.125000 0.000000 0.000000 2.067100 -8.152500 1.754200 
1.012269 15.871198 -16.974787 -1.344840 -0.622885 41.120642 4.250999 2.235093 0.796091 -3.370207 -20.738321 -78.138736 9.914317 19.545317 60.669050 1.302471 -1.802743 -16.338434 0.038900 -1.272200 -3.498100 -4.682420 -3.056406 2.424068 9.151776 19.948921 -79.316524 -10.527316 -19.157869 62.309061 -0.498604 -1.693216 -14.214361 -0.036700 1.235800 -3.398000 3.843854 -0.278236 49.897916 1.506077 2.340553 0.780033 0.125852 1.049659 -17.621765 -6.313828 -3.824978 -20.410564 6.255622 -2.361483 -19.733899 3.693000 -0.624700 0.215000 -5.099837 2.995038 -3.027765 -80.834080 8.090188 28.249770 39.679072 -48.684762 -22.054686 0.013902 -2.493366 -22.193673 26.092522 20.084813 11.040600 -7.125000 0.000000 0.000000 -2.026300 54.867100 -0.491200 2.847825 -1.213483 -2.127094 80.326103 -10.079484 18.538102 -67.539187 56.297109 -45.200408 1.862164 0.291490 -15.945759 -23.797467 20.021135 -9.325800 7.125000 0.000000 0.000000 1.757300 -8.014800 1.495800 
1.007949 15.854018 -16.888288 -1.350088 -0.744595 41.596650 4.252068 2.236887 0.794521 -3.301909 -20.727924 -78.354185 9.961571 19.575512 60.816072 1.338216 -1.786210 -16.749767 0.041600 -1.317200 -3.621900 -4.674856 -3.059100 2.424667 9.053665 19.979543 -79.614851 -10.562697 -19.181371 62.425932 -0.531585 -1.628745 -14.526382 -0.043500 1.345500 -3.699900 3.665519 -0.200556 50.561254 1.475497 2.346971 0.823568 0.127972 1.051203 -17.640954 -6.325408 -3.849954 -20.558012 6.479850 -2.285272 -20.844698 3.782200 -0.567200 -0.088900 -5.121527 3.044457 -3.056983 -81.001920 8.891884 28.235826 38.878166 -48.258126 -21.443932 -0.113127 -2.432311 -22.157415 26.401838 17.509768 9.973400 -7.125000 0.000000 0.000000 -0.945600 52.040300 -0.163900 2.837199 -1.220901 -2.134015 80.773347 -10.843202 18.203908 -68.088069 56.419542 -45.688542 1.888713 0.305116 -16.306770 -24.189277 20.269813 -9.606600 7.125000 0.000000 0.000000 1.515700 -7.679600 1.300000 
1.008752 15.848995 -16.800584 -1.359046 -0.906166 41.865051 4.256271 2.236458 0.798043 -3.405754 -20.699506 -78.322131 10.009539 19.602518 60.970700 1.342628 -1.619813 -17.082177 0.044900 -1.367900 -3.761600 -4.671677 -3.060213 2.427309 9.031016 19.989934 -79.630245 -10.604052 -19.201653 62.550868 -0.659550 -1.140140 -15.152671 -0.008700 0.603300 -1.657700 3.541701 -0.155261 51.504210 1.413463 2.345910 0.804111 0.048248 1.045998 -17.828706 -6.284171 -3.815544 -20.445387 6.591919 -2.169187 -22.083087 3.832500 -0.497300 -0.473700 -5.117836 3.082754 -3.091803 -81.177262 9.834069 28.218582 39.117133 -48.402866 -21.665999 -0.152783 -2.398621 -22.361482 26.515119 16.414259 9.485400 -7.125000 0.000000 0.000000 -0.566800 50.814900 -0.081200 2.808143 -1.218645 -2.139612 81.314104 -11.696191 17.863295 -68.801651 56.574106 -46.329108 1.916538 0.299936 -16.730013 -24.312555 20.771542 -9.899500 7.125000 0.000000 0.000000 1.481200 -7.094000 1.287400 
